<?xml version="1.0" encoding="UTF-8"?>
<!--Generator: Apple Native CoreSVG 341-->
<!DOCTYPE svg
PUBLIC "-//W3C//DTD SVG 1.1//EN"
       "http://www.w3.org/Graphics/SVG/1.1/DTD/svg11.dtd">
<svg version="1.1" xmlns="http://www.w3.org/2000/svg" xmlns:xlink="http://www.w3.org/1999/xlink" viewBox="0 0 254.395 254.59">
 <g>
  <rect height="254.59" opacity="0" width="254.395" x="0" y="0"/>
  <path d="M254.395 127.344C254.395 197.461 197.266 254.59 127.148 254.59C57.1289 254.59 0 197.461 0 127.344C0 57.3242 57.1289 0.195312 127.148 0.195312C197.266 0.195312 254.395 57.3242 254.395 127.344ZM74.6094 133.008L74.6094 175.488C74.6094 185.84 80.8594 191.504 91.1133 191.504L122.266 191.504L122.266 133.008ZM132.129 133.008L132.129 191.504L163.184 191.504C173.535 191.504 179.688 185.84 179.688 175.488L179.688 133.008ZM127.148 70.8984C123.926 61.8164 116.406 56.6406 107.129 56.6406C95.0195 56.6406 85.7422 65.1367 85.7422 77.3438C85.7422 83.2031 88.0859 88.2812 92.1875 91.7969L75.3906 91.7969C68.8477 91.7969 64.9414 94.9219 64.9414 101.465L64.9414 116.699C64.9414 123.438 68.6523 126.367 75.3906 126.367L122.266 126.367L122.266 91.7969L112.793 91.7969C102.051 91.7969 95.5078 85.4492 95.5078 77.6367C95.5078 70.8008 100.684 66.5039 107.617 66.5039C116.016 66.5039 122.266 72.9492 122.266 83.0078L122.266 91.7969L132.129 91.7969L132.129 83.0078C132.129 72.9492 138.379 66.5039 146.68 66.5039C153.711 66.5039 158.789 70.8008 158.789 77.6367C158.789 85.4492 152.246 91.7969 141.602 91.7969L132.129 91.7969L132.129 126.367L178.906 126.367C185.742 126.367 189.453 123.438 189.453 116.699L189.453 101.465C189.453 94.9219 185.742 91.7969 178.906 91.7969L162.109 91.7969C166.211 88.2812 168.555 83.2031 168.555 77.3438C168.555 65.1367 159.277 56.6406 147.168 56.6406C137.891 56.6406 130.371 61.8164 127.148 70.8984Z" fill="white" fill-opacity="0.85"/>
 </g>
</svg>
