<?xml version="1.0" encoding="UTF-8"?>
<!--Generator: Apple Native CoreSVG 341-->
<!DOCTYPE svg
PUBLIC "-//W3C//DTD SVG 1.1//EN"
       "http://www.w3.org/Graphics/SVG/1.1/DTD/svg11.dtd">
<svg version="1.1" xmlns="http://www.w3.org/2000/svg" xmlns:xlink="http://www.w3.org/1999/xlink" viewBox="0 0 474.219 258.105">
 <g>
  <rect height="258.105" opacity="0" width="474.219" x="0" y="0"/>
  <path d="M148.237 165.375C127.673 183.237 116.113 206.022 116.113 226.367C116.113 232.306 117.64 237.854 120.574 242.578L20.9961 242.578C6.15234 242.578 0 236.719 0 225.391C0 190.332 35.3516 148.828 91.9922 148.828C114.379 148.828 133.439 155.311 148.237 165.375ZM135.645 81.25C135.645 108.496 115.723 129.492 92.0898 129.492C68.457 129.492 48.5352 108.496 48.5352 81.4453C48.5352 54.9805 68.6523 34.2773 92.0898 34.2773C115.527 34.2773 135.645 54.5898 135.645 81.25Z" fill="white" fill-opacity="0.85"/>
  <path d="M474.219 225.391C474.219 236.719 468.066 242.578 453.32 242.578L354.111 242.578C357.056 237.854 358.594 232.306 358.594 226.367C358.594 205.952 346.954 183.08 326.254 165.185C341.016 155.231 359.979 148.828 382.227 148.828C438.867 148.828 474.219 190.332 474.219 225.391ZM425.879 81.25C425.879 108.496 406.055 129.492 382.422 129.492C358.789 129.492 338.77 108.496 338.77 81.4453C338.77 54.9805 358.887 34.2773 382.422 34.2773C405.859 34.2773 425.879 54.5898 425.879 81.25Z" fill="white" fill-opacity="0.85"/>
  <path d="M237.402 126.66C264.648 126.66 287.5 102.539 287.5 71.1914C287.5 40.625 264.453 17.2852 237.402 17.2852C210.449 17.2852 187.402 41.0156 187.402 71.3867C187.402 102.539 210.254 126.66 237.402 126.66ZM152.246 242.578L322.461 242.578C335.156 242.578 342.969 236.426 342.969 226.367C342.969 193.945 302.441 149.219 237.305 149.219C172.168 149.219 131.641 193.945 131.641 226.367C131.641 236.426 139.453 242.578 152.246 242.578Z" fill="white" fill-opacity="0.85"/>
 </g>
</svg>
