<?xml version="1.0" encoding="UTF-8"?>
<!--Generator: Apple Native CoreSVG 341-->
<!DOCTYPE svg
PUBLIC "-//W3C//DTD SVG 1.1//EN"
       "http://www.w3.org/Graphics/SVG/1.1/DTD/svg11.dtd">
<svg version="1.1" xmlns="http://www.w3.org/2000/svg" xmlns:xlink="http://www.w3.org/1999/xlink" viewBox="0 0 254.395 254.59">
 <g>
  <rect height="254.59" opacity="0" width="254.395" x="0" y="0"/>
  <path d="M127.148 254.395C197.363 254.395 254.395 197.461 254.395 127.246C254.395 57.0312 197.363 0 127.148 0C56.9336 0 0 57.0312 0 127.246C0 197.461 56.9336 254.395 127.148 254.395ZM127.148 236.23C66.8945 236.23 18.1641 187.5 18.1641 127.246C18.1641 66.9922 66.8945 18.2617 127.148 18.2617C187.402 18.2617 236.133 66.9922 236.133 127.246C236.133 187.5 187.402 236.23 127.148 236.23Z" fill="white" fill-opacity="0.85"/>
  <path d="M59.5703 140.039L127.051 140.039C131.348 140.039 134.668 136.719 134.668 132.422L134.668 45.3125C134.668 41.1133 131.348 37.793 127.051 37.793C122.949 37.793 119.531 41.1133 119.531 45.3125L119.531 124.902L59.5703 124.902C55.2734 124.902 52.0508 128.223 52.0508 132.422C52.0508 136.719 55.2734 140.039 59.5703 140.039Z" fill="white" fill-opacity="0.85"/>
 </g>
</svg>
