<?xml version="1.0" encoding="UTF-8"?>
<!--Generator: Apple Native CoreSVG 341-->
<!DOCTYPE svg
PUBLIC "-//W3C//DTD SVG 1.1//EN"
       "http://www.w3.org/Graphics/SVG/1.1/DTD/svg11.dtd">
<svg version="1.1" xmlns="http://www.w3.org/2000/svg" xmlns:xlink="http://www.w3.org/1999/xlink" viewBox="0 0 254.395 254.59">
 <g>
  <rect height="254.59" opacity="0" width="254.395" x="0" y="0"/>
  <path d="M254.395 127.246C254.395 197.266 197.266 254.395 127.148 254.395C57.1289 254.395 0 197.266 0 127.246C0 57.1289 57.1289 0 127.148 0C197.266 0 254.395 57.1289 254.395 127.246ZM123.242 58.7891L123.242 69.9219C104.688 71.3867 88.4766 82.4219 88.4766 100.586C88.4766 119.238 104.297 126.367 120.117 130.176L123.242 130.957L123.242 171.484C111.328 170.605 102.539 165.234 99.0234 153.906C97.5586 150.293 95.7031 148.828 92.5781 148.828C89.1602 148.828 86.4258 151.074 86.4258 154.883C86.4258 156.055 86.6211 157.324 87.0117 158.594C91.3086 174.316 107.422 181.738 123.242 182.812L123.242 194.434C123.242 196.582 125 198.34 127.148 198.34C129.297 198.34 131.055 196.582 131.055 194.434L131.055 182.812C150.879 181.738 167.969 171.777 167.969 151.367C167.969 132.52 152.734 125.098 135.156 120.996L131.055 120.02L131.055 81.4453C142.09 82.3242 150.391 87.9883 153.32 98.2422C154.395 101.758 156.641 103.516 159.766 103.516C162.793 103.516 166.016 101.562 166.016 97.6562C166.016 82.9102 148.633 71.3867 131.055 69.9219L131.055 58.7891C131.055 56.7383 129.297 54.9805 127.148 54.9805C125 54.9805 123.242 56.7383 123.242 58.7891ZM132.812 133.203C144.531 136.035 155.078 140.332 155.078 152.344C155.078 165.625 143.555 170.703 131.055 171.582L131.055 132.812ZM123.242 118.262L122.168 117.969C111.426 115.332 101.367 110.547 101.367 99.6094C101.367 88.2812 112.207 82.6172 123.242 81.4453Z" fill="white" fill-opacity="0.85"/>
 </g>
</svg>
